<svg width="1600" height="900" viewBox="0 0 1600 900" fill="none" xmlns="http://www.w3.org/2000/svg">
<g style="mix-blend-mode:lighten" opacity="0.05">
<path d="M720.294 1114.76L655.755 1002.18L617.931 1083.24L720.294 1114.76Z" fill="black"/>
<path d="M751.814 859.436L647.95 925.482L655.755 1002.18L751.814 859.436Z" fill="black"/>
<path d="M655.755 1002.18L647.95 925.482L617.931 1083.24L655.755 1002.18Z" fill="black"/>
<path d="M617.931 1083.24L634.441 1259.01L720.294 1114.76L617.931 1083.24Z" fill="#BFBFBF"/>
<path d="M617.931 1083.24L595.417 1254.36L634.441 1259.01L617.931 1083.24Z" fill="#BFBFBF"/>
<path d="M720.294 1114.76L751.814 859.436L655.755 1002.18L720.294 1114.76Z" fill="black"/>
<path d="M368.477 1086.24L475.043 1197.32L617.931 1083.24L368.477 1086.24Z" fill="black"/>
<path d="M617.931 1083.24L475.043 1197.32L595.417 1254.36L617.931 1083.24Z" fill="black"/>
<path d="M634.441 1259.01L845.171 1275.52L720.294 1114.76L634.441 1259.01Z" fill="black"/>
<path d="M720.294 1114.76L965.245 978.168L751.814 859.436L720.294 1114.76Z" fill="black"/>
<path d="M974.251 1228.84L965.245 978.168L720.294 1114.76L974.251 1228.84Z" fill="black"/>
<path d="M383.487 872.945L617.931 1083.24L647.95 925.482L383.487 872.945Z" fill="black"/>
<path d="M383.487 872.945L368.477 1086.24L617.931 1083.24L383.487 872.945Z" fill="#E6E6E6"/>
<path d="M965.245 978.168L833.164 788.887L751.814 859.436L965.245 978.168Z" fill="#7482CE"/>
<path d="M463.036 748.359L383.487 872.945L647.95 925.482L463.036 748.359Z" fill="#7E7E7E"/>
<path d="M833.164 788.887L816.654 778.38L751.814 859.436L833.164 788.887Z" fill="black"/>
<path d="M596.918 1458.65L721.795 1397.11L634.441 1259.01L596.918 1458.65Z" fill="black"/>
<path d="M634.441 1259.01L721.795 1397.11L845.171 1275.52L634.441 1259.01Z" fill="black"/>
<path d="M530.577 1421.13L634.441 1259.01L595.417 1254.36L530.577 1421.13Z" fill="#7E7E7E"/>
<path d="M989.56 1374.59L974.251 1228.84L845.171 1275.52L989.56 1374.59Z" fill="black"/>
<path d="M845.171 1275.52L974.251 1228.84L720.294 1114.76L845.171 1275.52Z" fill="#7482CE"/>
<path d="M721.795 1397.11L798.643 1391.1L845.171 1275.52L721.795 1397.11Z" fill="black"/>
<path d="M727.799 710.833L647.95 925.482L751.814 859.436L727.799 710.833Z" fill="black"/>
<path d="M741.307 638.633L727.799 710.833L816.654 778.38L741.307 638.633Z" fill="black"/>
<path d="M816.654 778.38L727.799 710.833L751.814 859.436L816.654 778.38Z" fill="black"/>
<path d="M249.754 940.642L312.793 1138.78L368.477 1086.24L249.754 940.642Z" fill="black"/>
<path d="M368.477 1086.24L312.793 1138.78L475.043 1197.32L368.477 1086.24Z" fill="#7E7E7E"/>
<path d="M475.043 1403.11L530.577 1421.13L595.417 1254.36L475.043 1403.11Z" fill="#E6E6E6"/>
<path d="M727.799 710.833L463.036 748.359L647.95 925.482L727.799 710.833Z" fill="black"/>
<path d="M989.56 1374.59L1030.09 1221.34L974.251 1228.84L989.56 1374.59Z" fill="#7E7E7E"/>
<path d="M974.251 1228.84L1088.62 1081.74L965.245 978.168L974.251 1228.84Z" fill="black"/>
<path d="M475.043 1403.11L595.417 1254.36L475.043 1197.32L475.043 1403.11Z" fill="#E6E6E6"/>
<path d="M721.795 1397.11L798.343 1494.68L798.643 1391.1L721.795 1397.11Z" fill="black"/>
<path d="M335.307 1397.11L475.043 1403.11L475.043 1197.32L335.307 1397.11Z" fill="#BDBDBD"/>
<path d="M616.43 1563.87L596.918 1458.65L533.579 1568.38L616.43 1563.87Z" fill="#7E7E7E"/>
<path d="M530.577 1421.13L596.918 1458.65L634.441 1259.01L530.577 1421.13Z" fill="#7E7E7E"/>
<path d="M1030.09 1221.34L1088.62 1081.74L974.251 1228.84L1030.09 1221.34Z" fill="#BDBDBD"/>
<path d="M965.245 978.168L941.531 706.33L833.164 788.887L965.245 978.168Z" fill="black"/>
<path d="M463.036 748.359L375.832 766.371L383.487 872.945L463.036 748.359Z" fill="#BDBDBD"/>
<path d="M383.487 872.945L249.754 940.642L368.477 1086.24L383.487 872.945Z" fill="#BFBFBF"/>
<path d="M1088.62 1081.74L1090.12 947.997L965.245 978.168L1088.62 1081.74Z" fill="black"/>
<path d="M941.531 706.33L741.307 638.633L816.654 778.38L941.531 706.33Z" fill="black"/>
<path d="M941.531 706.33L816.654 778.38L833.164 788.887L941.531 706.33Z" fill="#E6E6E6"/>
<path d="M727.799 710.833L553.391 643.286L463.036 748.359L727.799 710.833Z" fill="#BDBDBD"/>
<path d="M463.036 748.359L246.752 601.106L375.832 766.371L463.036 748.359Z" fill="black"/>
<path d="M1030.09 1221.34L1112.94 1092.25L1088.62 1081.74L1030.09 1221.34Z" fill="black"/>
<path d="M1088.62 1081.74L1112.94 1092.25L1090.12 947.997L1088.62 1081.74Z" fill="black"/>
<path d="M741.307 638.633L553.391 643.286L727.799 710.833L741.307 638.633Z" fill="black"/>
<path d="M798.343 1494.68L989.56 1374.59L798.643 1391.1L798.343 1494.68Z" fill="#7482CE"/>
<path d="M798.643 1391.1L989.56 1374.59L845.171 1275.52L798.643 1391.1Z" fill="black"/>
<path d="M1030.09 1221.34L1135.45 1334.07L1112.94 1092.25L1030.09 1221.34Z" fill="black"/>
<path d="M1090.12 947.997L941.531 706.33L965.245 978.168L1090.12 947.997Z" fill="black"/>
<path d="M204.726 793.39L249.754 940.642L383.487 872.945L204.726 793.39Z" fill="black"/>
<path d="M616.43 1563.87L798.343 1494.68L721.795 1397.11L616.43 1563.87Z" fill="black"/>
<path d="M252.756 1389.6L335.307 1397.11L312.793 1138.78L252.756 1389.6Z" fill="black"/>
<path d="M312.793 1138.78L335.307 1397.11L475.043 1197.32L312.793 1138.78Z" fill="#BDBDBD"/>
<path d="M533.579 1568.38L596.918 1458.65L530.577 1421.13L533.579 1568.38Z" fill="black"/>
<path d="M741.307 638.633L560.896 593.601L553.391 643.286L741.307 638.633Z" fill="black"/>
<path d="M553.391 643.286L506.563 530.558L463.036 748.359L553.391 643.286Z" fill="black"/>
<path d="M533.579 1568.38L530.577 1421.13L475.043 1403.11L533.579 1568.38Z" fill="black"/>
<path d="M596.918 1458.65L616.43 1563.87L721.795 1397.11L596.918 1458.65Z" fill="black"/>
<path d="M249.754 940.642L169.905 1110.26L312.793 1138.78L249.754 940.642Z" fill="black"/>
<path d="M335.307 1397.11L533.579 1568.38L475.043 1403.11L335.307 1397.11Z" fill="black"/>
<path d="M1257.03 616.117L950.236 608.612L941.531 706.33L1257.03 616.117Z" fill="black"/>
<path d="M941.531 706.33L950.236 608.612L741.307 638.633L941.531 706.33Z" fill="black"/>
<path d="M680.97 416.478L506.563 530.558L560.896 593.601L680.97 416.478Z" fill="black"/>
<path d="M1123.14 1410.62L1135.45 1334.07L989.56 1374.59L1123.14 1410.62Z" fill="#BFBFBF"/>
<path d="M989.56 1374.59L1135.45 1334.07L1030.09 1221.34L989.56 1374.59Z" fill="#7E7E7E"/>
<path d="M169.905 1110.26L252.756 1389.6L312.793 1138.78L169.905 1110.26Z" fill="black"/>
<path d="M335.307 1397.11L232.944 1619.41L533.579 1568.38L335.307 1397.11Z" fill="#BFBFBF"/>
<path d="M93.3577 844.425L141.387 984.172L249.754 940.642L93.3577 844.425Z" fill="black"/>
<path d="M249.754 940.642L141.387 984.172L169.905 1110.26L249.754 940.642Z" fill="black"/>
<path d="M204.726 793.39L383.487 872.945L375.832 766.371L204.726 793.39Z" fill="#E6E6E6"/>
<path d="M246.752 601.106L204.726 793.39L375.832 766.371L246.752 601.106Z" fill="black"/>
<path d="M772.827 472.017L560.896 593.601L741.307 638.633L772.827 472.017Z" fill="black"/>
<path d="M560.896 593.601L506.563 530.558L553.391 643.286L560.896 593.601Z" fill="#BDBDBD"/>
<path d="M1070.61 1574.38L1123.14 1410.62L989.56 1374.59L1070.61 1574.38Z" fill="#7E7E7E"/>
<path d="M1070.61 1574.38L989.56 1374.59L798.343 1494.68L1070.61 1574.38Z" fill="#7482CE"/>
<path d="M563.898 1781.53L738.306 1638.93L616.43 1563.87L563.898 1781.53Z" fill="#7482CE"/>
<path d="M616.43 1563.87L738.306 1638.93L798.343 1494.68L616.43 1563.87Z" fill="black"/>
<path d="M1297.7 1161.3L1266.03 1084.74L1112.94 1092.25L1297.7 1161.3Z" fill="#7482CE"/>
<path d="M1112.94 1092.25L1266.03 1084.74L1090.12 947.997L1112.94 1092.25Z" fill="#E6E6E6"/>
<path d="M1090.12 947.997L1246.52 832.417L941.531 706.33L1090.12 947.997Z" fill="#E6E6E6"/>
<path d="M1297.7 1161.3L1112.94 1092.25L1135.45 1334.07L1297.7 1161.3Z" fill="#BFBFBF"/>
<path d="M950.236 608.612L772.827 472.017L741.307 638.633L950.236 608.612Z" fill="#BFBFBF"/>
<path d="M1284.19 952.65L1246.52 832.417L1090.12 947.997L1284.19 952.65Z" fill="black"/>
<path d="M950.236 608.612L875.19 414.977L772.827 472.017L950.236 608.612Z" fill="#7482CE"/>
<path d="M1266.03 1084.74L1284.19 952.65L1090.12 947.997L1266.03 1084.74Z" fill="#E6E6E6"/>
<path d="M246.752 601.106L129.38 784.384L204.726 793.39L246.752 601.106Z" fill="black"/>
<path d="M204.726 793.39L93.3577 844.425L249.754 940.642L204.726 793.39Z" fill="black"/>
<path d="M1402.77 1301.04L1297.7 1161.3L1135.45 1334.07L1402.77 1301.04Z" fill="black"/>
<path d="M1266.03 1084.74L1389.56 1005.19L1284.19 952.65L1266.03 1084.74Z" fill="#E6E6E6"/>
<path d="M129.38 784.384L93.3577 844.425L204.726 793.39L129.38 784.384Z" fill="black"/>
<path d="M5.31443e-05 1231.84L72.3447 1325.06L169.905 1110.26L5.31443e-05 1231.84Z" fill="#7482CE"/>
<path d="M506.563 530.558L246.752 601.106L463.036 748.359L506.563 530.558Z" fill="black"/>
<path d="M1389.56 1005.19L1296.2 910.471L1284.19 952.65L1389.56 1005.19Z" fill="black"/>
<path d="M1284.19 952.65L1296.2 910.471L1246.52 832.417L1284.19 952.65Z" fill="#E6E6E6"/>
<path d="M891.7 1685.46L1070.61 1574.38L798.343 1494.68L891.7 1685.46Z" fill="black"/>
<path d="M1123.14 1410.62L1261.53 1461.65L1135.45 1334.07L1123.14 1410.62Z" fill="#7E7E7E"/>
<path d="M772.827 472.017L680.97 416.478L560.896 593.601L772.827 472.017Z" fill="black"/>
<path d="M339.81 362.441L205.927 479.522L246.752 601.106L339.81 362.441Z" fill="black"/>
<path d="M1410.27 802.396L1254.02 764.87L1246.52 832.417L1410.27 802.396Z" fill="black"/>
<path d="M1246.52 832.417L1254.02 764.87L941.531 706.33L1246.52 832.417Z" fill="black"/>
<path d="M738.306 1638.93L891.7 1685.46L798.343 1494.68L738.306 1638.93Z" fill="black"/>
<path d="M169.905 1110.26L72.3447 1325.06L252.756 1389.6L169.905 1110.26Z" fill="black"/>
<path d="M252.756 1389.6L172.907 1493.18L335.307 1397.11L252.756 1389.6Z" fill="black"/>
<path d="M6.45609e-05 970.663L169.905 1110.26L141.387 984.172L6.45609e-05 970.663Z" fill="black"/>
<path d="M72.3447 1325.06L172.907 1493.18L252.756 1389.6L72.3447 1325.06Z" fill="#BDBDBD"/>
<path d="M651.252 1799.54L837.667 1748.5L738.306 1638.93L651.252 1799.54Z" fill="#7482CE"/>
<path d="M738.306 1638.93L837.667 1748.5L891.7 1685.46L738.306 1638.93Z" fill="#BDBDBD"/>
<path d="M976.052 405.971L875.19 414.977L950.236 608.612L976.052 405.971Z" fill="black"/>
<path d="M772.827 472.017L787.836 260.22L680.97 416.478L772.827 472.017Z" fill="#7482CE"/>
<path d="M7.02101e-05 841.423L6.45609e-05 970.663L93.3577 844.425L7.02101e-05 841.423Z" fill="black"/>
<path d="M93.3577 844.425L6.45609e-05 970.663L141.387 984.172L93.3577 844.425Z" fill="black"/>
<path d="M7.02101e-05 841.423L93.3577 844.425L7.40156e-05 754.363L7.02101e-05 841.423Z" fill="black"/>
<path d="M6.45609e-05 970.663L5.31443e-05 1231.84L169.905 1110.26L6.45609e-05 970.663Z" fill="black"/>
<path d="M3.76466e-05 1586.39L216.734 1608.91L172.907 1493.18L3.76466e-05 1586.39Z" fill="#E6E6E6"/>
<path d="M563.898 1781.53L616.43 1563.87L533.579 1568.38L563.898 1781.53Z" fill="#BDBDBD"/>
<path d="M1042.09 1846.07L1233.01 1610.41L1070.61 1574.38L1042.09 1846.07Z" fill="#BFBFBF"/>
<path d="M1288.69 1532.2L1261.53 1461.65L1233.01 1610.41L1288.69 1532.2Z" fill="black"/>
<path d="M1070.61 1574.38L1261.53 1461.65L1123.14 1410.62L1070.61 1574.38Z" fill="#BFBFBF"/>
<path d="M1297.7 1161.3L1389.56 1005.19L1266.03 1084.74L1297.7 1161.3Z" fill="#7E7E7E"/>
<path d="M1296.2 910.471L1410.27 802.396L1246.52 832.417L1296.2 910.471Z" fill="#BDBDBD"/>
<path d="M1457.1 1111.76L1389.56 1005.19L1297.7 1161.3L1457.1 1111.76Z" fill="black"/>
<path d="M216.734 1608.91L232.944 1619.41L172.907 1493.18L216.734 1608.91Z" fill="black"/>
<path d="M172.907 1493.18L232.944 1619.41L335.307 1397.11L172.907 1493.18Z" fill="#7482CE"/>
<path d="M7.40156e-05 754.363L93.3577 844.425L129.38 784.384L7.40156e-05 754.363Z" fill="black"/>
<path d="M4.55266e-05 1406.12L172.907 1493.18L72.3447 1325.06L4.55266e-05 1406.12Z" fill="black"/>
<path d="M1106.63 479.522L976.052 405.971L950.236 608.612L1106.63 479.522Z" fill="black"/>
<path d="M496.056 336.923L499.058 341.276L650.952 261.721L496.056 336.923Z" fill="#BFBFBF"/>
<path d="M1257.03 616.117L1106.63 479.522L950.236 608.612L1257.03 616.117Z" fill="#BDBDBD"/>
<path d="M1257.03 616.117L941.531 706.33L1254.02 764.87L1257.03 616.117Z" fill="#7E7E7E"/>
<path d="M374.331 1795.03L563.898 1781.53L533.579 1568.38L374.331 1795.03Z" fill="black"/>
<path d="M1390.76 631.127L1257.03 616.117L1254.02 764.87L1390.76 631.127Z" fill="#E6E6E6"/>
<path d="M563.898 1781.53L651.252 1799.54L738.306 1638.93L563.898 1781.53Z" fill="black"/>
<path d="M499.058 341.276L680.97 416.478L650.952 261.721L499.058 341.276Z" fill="#7482CE"/>
<path d="M680.97 416.478L499.058 341.276L506.563 530.558L680.97 416.478Z" fill="black"/>
<path d="M8.27487e-05 554.574L7.40156e-05 754.363L129.38 784.384L8.27487e-05 554.574Z" fill="#7E7E7E"/>
<path d="M8.27487e-05 554.574L129.38 784.384L246.752 601.106L8.27487e-05 554.574Z" fill="#BDBDBD"/>
<path d="M650.952 261.721L680.97 416.478L787.836 260.22L650.952 261.721Z" fill="#7482CE"/>
<path d="M339.81 362.441L246.752 601.106L506.563 530.558L339.81 362.441Z" fill="black"/>
<path d="M339.81 362.441L506.563 530.558L499.058 341.276L339.81 362.441Z" fill="black"/>
<path d="M1261.53 1461.65L1402.77 1301.04L1135.45 1334.07L1261.53 1461.65Z" fill="#7482CE"/>
<path d="M5.31443e-05 1231.84L4.55266e-05 1406.12L72.3447 1325.06L5.31443e-05 1231.84Z" fill="black"/>
<path d="M1233.01 1610.41L1261.53 1461.65L1070.61 1574.38L1233.01 1610.41Z" fill="#BDBDBD"/>
<path d="M1261.53 1461.65L1425.58 1344.57L1402.77 1301.04L1261.53 1461.65Z" fill="black"/>
<path d="M1389.56 1005.19L1410.27 802.396L1296.2 910.471L1389.56 1005.19Z" fill="#BDBDBD"/>
<path d="M1503.63 785.885L1410.27 802.396L1389.56 1005.19L1503.63 785.885Z" fill="black"/>
<path d="M1042.09 1846.07L1070.61 1574.38L891.7 1685.46L1042.09 1846.07Z" fill="#E6E6E6"/>
<path d="M1402.77 1301.04L1457.1 1111.76L1297.7 1161.3L1402.77 1301.04Z" fill="#BFBFBF"/>
<path d="M496.056 336.923L339.81 362.441L499.058 341.276L496.056 336.923Z" fill="black"/>
<path d="M186.415 1775.52L374.331 1795.03L232.944 1619.41L186.415 1775.52Z" fill="black"/>
<path d="M232.944 1619.41L374.331 1795.03L533.579 1568.38L232.944 1619.41Z" fill="black"/>
<path d="M563.898 1781.53L587.913 1865.73L651.252 1799.54L563.898 1781.53Z" fill="black"/>
<path d="M186.415 1775.52L232.944 1619.41L216.734 1608.91L186.415 1775.52Z" fill="#E6E6E6"/>
<path d="M374.331 1795.03L491.553 1834.06L563.898 1781.53L374.331 1795.03Z" fill="#7E7E7E"/>
<path d="M1428.58 1496.18L1261.53 1461.65L1288.69 1532.2L1428.58 1496.18Z" fill="black"/>
<path d="M1428.58 1496.18L1425.58 1344.57L1261.53 1461.65L1428.58 1496.18Z" fill="black"/>
<path d="M1402.77 1301.04L1621 1129.77L1457.1 1111.76L1402.77 1301.04Z" fill="black"/>
<path d="M787.836 260.22L772.827 472.017L875.19 414.977L787.836 260.22Z" fill="#BDBDBD"/>
<path d="M360.823 101.11L228.741 300.748L339.81 362.441L360.823 101.11Z" fill="black"/>
<path d="M1025.58 191.172L866.184 279.734L976.052 405.971L1025.58 191.172Z" fill="#7482CE"/>
<path d="M976.052 405.971L866.184 279.734L875.19 414.977L976.052 405.971Z" fill="black"/>
<path d="M500.559 1856.73L587.913 1865.73L563.898 1781.53L500.559 1856.73Z" fill="#7E7E7E"/>
<path d="M777.33 1966.3L918.717 1864.23L837.667 1748.5L777.33 1966.3Z" fill="black"/>
<path d="M837.667 1748.5L956.54 1855.23L891.7 1685.46L837.667 1748.5Z" fill="black"/>
<path d="M866.184 279.734L787.836 260.22L875.19 414.977L866.184 279.734Z" fill="#BFBFBF"/>
<path d="M1257.03 616.117L1196.99 434.491L1106.63 479.522L1257.03 616.117Z" fill="#E6E6E6"/>
<path d="M1106.63 479.522L1100.63 212.187L976.052 405.971L1106.63 479.522Z" fill="black"/>
<path d="M1311.21 416.478L1196.99 434.491L1257.03 616.117L1311.21 416.478Z" fill="black"/>
<path d="M374.331 1795.03L500.559 1856.73L491.553 1834.06L374.331 1795.03Z" fill="#7E7E7E"/>
<path d="M491.553 1834.06L500.559 1856.73L563.898 1781.53L491.553 1834.06Z" fill="#7482CE"/>
<path d="M4.55266e-05 1406.12L4.0212e-05 1527.7L172.907 1493.18L4.55266e-05 1406.12Z" fill="#BFBFBF"/>
<path d="M1425.58 671.806L1254.02 764.87L1410.27 802.396L1425.58 671.806Z" fill="#7482CE"/>
<path d="M1425.58 671.806L1390.76 631.127L1254.02 764.87L1425.58 671.806Z" fill="#E6E6E6"/>
<path d="M777.33 1966.3L837.667 1748.5L651.252 1799.54L777.33 1966.3Z" fill="#7482CE"/>
<path d="M918.717 1864.23L956.54 1855.23L837.667 1748.5L918.717 1864.23Z" fill="black"/>
<path d="M1503.63 785.885L1425.58 671.806L1410.27 802.396L1503.63 785.885Z" fill="#BFBFBF"/>
<path d="M205.927 479.522L8.27487e-05 554.574L246.752 601.106L205.927 479.522Z" fill="black"/>
<path d="M126.378 411.975L8.27487e-05 554.574L205.927 479.522L126.378 411.975Z" fill="#7E7E7E"/>
<path d="M228.741 300.748L205.927 479.522L339.81 362.441L228.741 300.748Z" fill="black"/>
<path d="M228.741 300.748L126.378 411.975L205.927 479.522L228.741 300.748Z" fill="black"/>
<path d="M4.0212e-05 1527.7L3.76466e-05 1586.39L172.907 1493.18L4.0212e-05 1527.7Z" fill="black"/>
<path d="M1064.61 2158.44L1042.09 1846.07L956.54 1855.23L1064.61 2158.44Z" fill="#E6E6E6"/>
<path d="M956.54 1855.23L1042.09 1846.07L891.7 1685.46L956.54 1855.23Z" fill="#BDBDBD"/>
<path d="M1357.74 1634.42L1288.69 1532.2L1233.01 1610.41L1357.74 1634.42Z" fill="#7E7E7E"/>
<path d="M1357.74 1634.42L1428.58 1496.18L1288.69 1532.2L1357.74 1634.42Z" fill="black"/>
<path d="M1425.58 1344.57L1621 1129.77L1402.77 1301.04L1425.58 1344.57Z" fill="#E6E6E6"/>
<path d="M3.76466e-05 1586.39L186.415 1775.52L216.734 1608.91L3.76466e-05 1586.39Z" fill="#7E7E7E"/>
<path d="M339.81 2141.93L544.386 1990.32L500.559 1856.73L339.81 2141.93Z" fill="#7482CE"/>
<path d="M1621 943.644L1503.63 785.885L1389.56 1005.19L1621 943.644Z" fill="black"/>
<path d="M1621 943.644L1389.56 1005.19L1457.1 1111.76L1621 943.644Z" fill="black"/>
<path d="M787.836 260.22L673.466 194.174L650.952 261.721L787.836 260.22Z" fill="black"/>
<path d="M650.952 261.721L419.509 89.1012L496.056 336.923L650.952 261.721Z" fill="black"/>
<path d="M673.766 87.6002L673.466 194.174L854.177 72.5898L673.766 87.6002Z" fill="black"/>
<path d="M180.411 234.702L228.741 300.748L360.823 101.11L180.411 234.702Z" fill="#BDBDBD"/>
<path d="M1270.53 1856.58L1357.74 1634.42L1233.01 1610.41L1270.53 1856.58Z" fill="black"/>
<path d="M1390.76 631.127L1311.21 416.478L1257.03 616.117L1390.76 631.127Z" fill="black"/>
<path d="M1100.63 212.187L1025.58 191.172L976.052 405.971L1100.63 212.187Z" fill="black"/>
<path d="M866.184 279.734L854.177 72.5898L787.836 260.22L866.184 279.734Z" fill="#BFBFBF"/>
<path d="M1542.65 399.967L1311.21 416.478L1390.76 631.127L1542.65 399.967Z" fill="black"/>
<path d="M1533.65 616.117L1390.76 631.127L1425.58 671.806L1533.65 616.117Z" fill="#E6E6E6"/>
<path d="M587.913 1865.73L777.33 1966.3L651.252 1799.54L587.913 1865.73Z" fill="black"/>
<path d="M918.717 1864.23L842.169 2063.87L956.54 1855.23L918.717 1864.23Z" fill="black"/>
<path d="M544.386 1990.32L777.33 1966.3L587.913 1865.73L544.386 1990.32Z" fill="black"/>
<path d="M544.386 1990.32L587.913 1865.73L500.559 1856.73L544.386 1990.32Z" fill="black"/>
<path d="M126.378 411.975L8.79321e-05 435.992L8.27487e-05 554.574L126.378 411.975Z" fill="black"/>
<path d="M9.72556e-05 222.694L8.79321e-05 435.992L126.378 411.975L9.72556e-05 222.694Z" fill="#E6E6E6"/>
<path d="M219.736 1886.75L500.559 1856.73L374.331 1795.03L219.736 1886.75Z" fill="black"/>
<path d="M1100.63 212.187L1106.63 479.522L1196.99 434.491L1100.63 212.187Z" fill="black"/>
<path d="M544.386 1990.32L780.331 1996.32L777.33 1966.3L544.386 1990.32Z" fill="black"/>
<path d="M777.33 1966.3L842.169 2063.87L918.717 1864.23L777.33 1966.3Z" fill="black"/>
<path d="M1621 1385.1L1425.58 1344.57L1621 1421.13L1621 1385.1Z" fill="black"/>
<path d="M1621 1385.1L1621 1129.77L1425.58 1344.57L1621 1385.1Z" fill="#BFBFBF"/>
<path d="M175.909 1889.75L219.736 1886.75L186.415 1775.52L175.909 1889.75Z" fill="#7482CE"/>
<path d="M186.415 1775.52L219.736 1886.75L374.331 1795.03L186.415 1775.52Z" fill="#E6E6E6"/>
<path d="M1064.61 2158.44L1180.48 1865.73L1042.09 1846.07L1064.61 2158.44Z" fill="#BDBDBD"/>
<path d="M1042.09 1846.07L1180.48 1865.73L1233.01 1610.41L1042.09 1846.07Z" fill="black"/>
<path d="M1621 1129.77L1621 943.644L1457.1 1111.76L1621 1129.77Z" fill="#7482CE"/>
<path d="M1503.63 785.885L1533.65 616.117L1425.58 671.806L1503.63 785.885Z" fill="black"/>
<path d="M1246.52 297.746L1100.63 212.187L1196.99 434.491L1246.52 297.746Z" fill="#E6E6E6"/>
<path d="M1222.5 194.174L1246.52 297.746L1366.74 170.158L1222.5 194.174Z" fill="#7E7E7E"/>
<path d="M1311.21 416.478L1246.52 297.746L1196.99 434.491L1311.21 416.478Z" fill="black"/>
<path d="M1621 943.644L1621 892.459L1503.63 785.885L1621 943.644Z" fill="#BFBFBF"/>
<path d="M1621 773.876L1533.65 616.117L1503.63 785.885L1621 773.876Z" fill="black"/>
<path d="M360.823 101.11L339.81 362.441L496.056 336.923L360.823 101.11Z" fill="black"/>
<path d="M228.741 300.748L180.411 234.702L126.378 411.975L228.741 300.748Z" fill="black"/>
<path d="M2.83296e-05 1799.54L175.909 1889.75L186.415 1775.52L2.83296e-05 1799.54Z" fill="black"/>
<path d="M339.81 2141.93L393.993 2155.44L544.386 1990.32L339.81 2141.93Z" fill="black"/>
<path d="M854.177 72.5898L673.466 194.174L787.836 260.22L854.177 72.5898Z" fill="#7E7E7E"/>
<path d="M673.466 194.174L419.509 89.1012L650.952 261.721L673.466 194.174Z" fill="black"/>
<path d="M854.177 72.5898L866.184 279.734L1025.58 191.172L854.177 72.5898Z" fill="#BFBFBF"/>
<path d="M1621 892.459L1621 773.876L1503.63 785.885L1621 892.459Z" fill="#7482CE"/>
<path d="M1391.06 1900.26L1270.53 1856.58L1380.25 2000.83L1391.06 1900.26Z" fill="black"/>
<path d="M1180.48 1865.73L1270.53 1856.58L1233.01 1610.41L1180.48 1865.73Z" fill="#BDBDBD"/>
<path d="M1621 1421.13L1425.58 1344.57L1428.58 1496.18L1621 1421.13Z" fill="black"/>
<path d="M1621 1421.13L1428.58 1496.18L1621 1709.48L1621 1421.13Z" fill="#BFBFBF"/>
<path d="M3.76466e-05 1586.39L2.83296e-05 1799.54L186.415 1775.52L3.76466e-05 1586.39Z" fill="#BFBFBF"/>
<path d="M943.032 24.4063L854.177 72.5898L1025.58 191.172L943.032 24.4063Z" fill="#BFBFBF"/>
<path d="M1499.12 1707.97L1428.58 1496.18L1357.74 1634.42L1499.12 1707.97Z" fill="#BDBDBD"/>
<path d="M404.5 43.9198L419.509 89.1012L503.861 -83.6687L404.5 43.9198Z" fill="#E6E6E6"/>
<path d="M673.766 87.6002L419.509 89.1012L673.466 194.174L673.766 87.6002Z" fill="#7E7E7E"/>
<path d="M419.509 89.1012L360.823 101.11L496.056 336.923L419.509 89.1012Z" fill="#7482CE"/>
<path d="M802.845 2206.62L842.169 2063.87L780.331 1996.32L802.845 2206.62Z" fill="#BFBFBF"/>
<path d="M780.331 1996.32L842.169 2063.87L777.33 1966.3L780.331 1996.32Z" fill="black"/>
<path d="M1246.52 297.746L1222.5 194.174L1100.63 212.187L1246.52 297.746Z" fill="black"/>
<path d="M1106.93 7.89487L943.032 24.4063L1025.58 191.172L1106.93 7.89487Z" fill="black"/>
<path d="M1366.74 170.158L1246.52 297.746L1311.21 416.478L1366.74 170.158Z" fill="#7E7E7E"/>
<path d="M1391.06 1900.26L1393.76 1813.05L1270.53 1856.58L1391.06 1900.26Z" fill="black"/>
<path d="M1270.53 1856.58L1393.76 1813.05L1357.74 1634.42L1270.53 1856.58Z" fill="black"/>
<path d="M1393.76 1813.05L1499.12 1707.97L1357.74 1634.42L1393.76 1813.05Z" fill="black"/>
<path d="M503.861 -83.6687L419.509 89.1012L673.766 87.6002L503.861 -83.6687Z" fill="#BFBFBF"/>
<path d="M419.509 89.1012L404.5 43.9198L360.823 101.11L419.509 89.1012Z" fill="black"/>
<path d="M9.87647e-05 188.17L9.72556e-05 222.694L180.411 234.702L9.87647e-05 188.17Z" fill="#7E7E7E"/>
<path d="M1621 773.876L1621 565.082L1533.65 616.117L1621 773.876Z" fill="black"/>
<path d="M1533.65 616.117L1542.65 399.967L1390.76 631.127L1533.65 616.117Z" fill="#BFBFBF"/>
<path d="M1106.93 7.89487L1025.58 191.172L1100.63 212.187L1106.93 7.89487Z" fill="black"/>
<path d="M854.177 72.5898L860.181 -5.6145L673.766 87.6002L854.177 72.5898Z" fill="black"/>
<path d="M9.87647e-05 188.17L180.411 234.702L153.395 75.5918L9.87647e-05 188.17Z" fill="black"/>
<path d="M180.411 234.702L9.72556e-05 222.694L126.378 411.975L180.411 234.702Z" fill="#BDBDBD"/>
<path d="M943.032 24.4063L860.181 -5.6145L854.177 72.5898L943.032 24.4063Z" fill="black"/>
<path d="M1621 458.508L1542.65 399.967L1533.65 616.117L1621 458.508Z" fill="black"/>
<path d="M1393.76 1813.05L1544.15 1728.99L1499.12 1707.97L1393.76 1813.05Z" fill="black"/>
<path d="M1499.12 1707.97L1621 1709.48L1428.58 1496.18L1499.12 1707.97Z" fill="#7E7E7E"/>
<path d="M1380.25 2000.83L1270.53 1856.58L1335.22 2080.38L1380.25 2000.83Z" fill="black"/>
<path d="M1393.76 1813.05L1621 1912.27L1544.15 1728.99L1393.76 1813.05Z" fill="#E6E6E6"/>
<path d="M153.395 75.5918L180.411 234.702L360.823 101.11L153.395 75.5918Z" fill="black"/>
<path d="M1621 565.082L1621 458.508L1533.65 616.117L1621 565.082Z" fill="black"/>
<path d="M240.749 -79.1656L153.395 75.5918L360.823 101.11L240.749 -79.1656Z" fill="#E6E6E6"/>
<path d="M1530.64 272.228L1366.74 170.158L1311.21 416.478L1530.64 272.228Z" fill="black"/>
<path d="M1222.5 194.174L1106.93 7.89487L1100.63 212.187L1222.5 194.174Z" fill="#7E7E7E"/>
<path d="M943.032 24.4063L822.357 -92.6749L860.181 -5.6145L943.032 24.4063Z" fill="black"/>
<path d="M1530.64 272.228L1311.21 416.478L1542.65 399.967L1530.64 272.228Z" fill="black"/>
<path d="M339.81 2141.93L500.559 1856.73L219.736 1886.75L339.81 2141.93Z" fill="black"/>
<path d="M544.386 1990.32L802.845 2206.62L780.331 1996.32L544.386 1990.32Z" fill="#7482CE"/>
<path d="M339.81 2141.93L219.736 1886.75L99.3613 2072.88L339.81 2141.93Z" fill="black"/>
<path d="M99.3613 2072.88L219.736 1886.75L175.909 1889.75L99.3613 2072.88Z" fill="#7E7E7E"/>
<path d="M1242.17 36.5648L1106.93 7.89487L1222.5 194.174L1242.17 36.5648Z" fill="#7482CE"/>
<path d="M1621 1715.48L1621 1709.48L1544.15 1728.99L1621 1715.48Z" fill="#7E7E7E"/>
<path d="M1544.15 1728.99L1621 1709.48L1499.12 1707.97L1544.15 1728.99Z" fill="#E6E6E6"/>
<path d="M2.83296e-05 1799.54L2.03183e-05 1982.82L175.909 1889.75L2.83296e-05 1799.54Z" fill="black"/>
<path d="M1621 1912.27L1621 1715.48L1544.15 1728.99L1621 1912.27Z" fill="#E6E6E6"/>
<path d="M559.395 2298.18L802.845 2206.62L544.386 1990.32L559.395 2298.18Z" fill="black"/>
<path d="M842.169 2063.87L1064.61 2158.44L956.54 1855.23L842.169 2063.87Z" fill="#7E7E7E"/>
<path d="M784.834 -139.207L503.861 -83.6687L673.766 87.6002L784.834 -139.207Z" fill="black"/>
<path d="M240.749 -79.1656L103.864 33.4125L153.395 75.5918L240.749 -79.1656Z" fill="black"/>
<path d="M822.357 -92.6749L673.766 87.6002L860.181 -5.6145L822.357 -92.6749Z" fill="black"/>
<path d="M963.745 2280.17L1064.61 2158.44L842.169 2063.87L963.745 2280.17Z" fill="#E6E6E6"/>
<path d="M1621 209.185L1530.64 272.228L1542.65 399.967L1621 209.185Z" fill="#BDBDBD"/>
<path d="M1366.74 170.158L1242.17 36.5648L1222.5 194.174L1366.74 170.158Z" fill="black"/>
<path d="M918.717 -239.777L822.357 -92.6749L943.032 24.4063L918.717 -239.777Z" fill="black"/>
<path d="M2.03183e-05 1982.82L99.3613 2072.88L175.909 1889.75L2.03183e-05 1982.82Z" fill="black"/>
<path d="M339.81 2141.93L363.824 2185.61L393.993 2155.44L339.81 2141.93Z" fill="black"/>
<path d="M393.993 2155.44L559.395 2298.18L544.386 1990.32L393.993 2155.44Z" fill="black"/>
<path d="M205.927 2230.64L363.824 2185.61L339.81 2141.93L205.927 2230.64Z" fill="black"/>
<path d="M1375.75 -61.153L1242.17 36.5648L1366.74 170.158L1375.75 -61.153Z" fill="black"/>
<path d="M918.717 -239.777L784.834 -139.207L822.357 -92.6749L918.717 -239.777Z" fill="#BFBFBF"/>
<path d="M1335.22 2080.38L1270.53 1856.58L1180.48 1865.73L1335.22 2080.38Z" fill="black"/>
<path d="M1391.06 1900.26L1621 1912.27L1393.76 1813.05L1391.06 1900.26Z" fill="black"/>
<path d="M240.749 -79.1656L360.823 101.11L404.5 43.9198L240.749 -79.1656Z" fill="#BDBDBD"/>
<path d="M153.395 75.5918L103.864 33.4125L9.87647e-05 188.17L153.395 75.5918Z" fill="#BDBDBD"/>
<path d="M1114.14 2229.14L1139.95 2165.94L1064.61 2158.44L1114.14 2229.14Z" fill="#E6E6E6"/>
<path d="M1064.61 2158.44L1139.95 2165.94L1180.48 1865.73L1064.61 2158.44Z" fill="black"/>
<path d="M270.767 2350.72L398.496 2235.14L363.824 2185.61L270.767 2350.72Z" fill="black"/>
<path d="M363.824 2185.61L398.496 2235.14L393.993 2155.44L363.824 2185.61Z" fill="black"/>
<path d="M1162.47 -104.683L943.032 24.4063L1106.93 7.89487L1162.47 -104.683Z" fill="#BDBDBD"/>
<path d="M822.357 -92.6749L784.834 -139.207L673.766 87.6002L822.357 -92.6749Z" fill="#BFBFBF"/>
<path d="M1139.95 2165.94L1335.22 2080.38L1180.48 1865.73L1139.95 2165.94Z" fill="#7482CE"/>
<path d="M1621 1997.83L1621 1912.27L1391.06 1900.26L1621 1997.83Z" fill="black"/>
<path d="M378.984 -146.712L240.749 -79.1656L404.5 43.9198L378.984 -146.712Z" fill="#BDBDBD"/>
<path d="M378.984 -146.712L404.5 43.9198L503.861 -83.6687L378.984 -146.712Z" fill="#BFBFBF"/>
<path d="M2.03183e-05 1982.82L1.60535e-05 2080.38L99.3613 2072.88L2.03183e-05 1982.82Z" fill="black"/>
<path d="M99.3613 2072.88L205.927 2230.64L339.81 2141.93L99.3613 2072.88Z" fill="black"/>
<path d="M389.49 2323.7L559.395 2298.18L398.496 2235.14L389.49 2323.7Z" fill="#E6E6E6"/>
<path d="M398.496 2235.14L559.395 2298.18L393.993 2155.44L398.496 2235.14Z" fill="black"/>
<path d="M963.745 2280.17L1114.14 2229.14L1064.61 2158.44L963.745 2280.17Z" fill="#E6E6E6"/>
<path d="M963.745 2280.17L842.169 2063.87L802.845 2206.62L963.745 2280.17Z" fill="#BDBDBD"/>
<path d="M1139.95 2165.94L1323.22 2235.14L1335.22 2080.38L1139.95 2165.94Z" fill="#E6E6E6"/>
<path d="M512.866 -212.758L378.984 -146.712L503.861 -83.6687L512.866 -212.758Z" fill="#7E7E7E"/>
<path d="M930.724 2461.8L963.745 2280.17L802.845 2206.62L930.724 2461.8Z" fill="black"/>
<path d="M1024.08 2392.75L1156.46 2227.64L1114.14 2229.14L1024.08 2392.75Z" fill="#7482CE"/>
<path d="M1114.14 2229.14L1156.46 2227.64L1139.95 2165.94L1114.14 2229.14Z" fill="#E6E6E6"/>
<path d="M378.984 -146.712L258.76 -122.696L240.749 -79.1656L378.984 -146.712Z" fill="black"/>
<path d="M240.749 -79.1656L0.000107957 -22.126L103.864 33.4125L240.749 -79.1656Z" fill="#7E7E7E"/>
<path d="M1.33568e-05 2142.08L205.927 2230.64L99.3613 2072.88L1.33568e-05 2142.08Z" fill="#E6E6E6"/>
<path d="M1375.75 -61.153L1162.47 -104.683L1242.17 36.5648L1375.75 -61.153Z" fill="black"/>
<path d="M1242.17 36.5648L1162.47 -104.683L1106.93 7.89487L1242.17 36.5648Z" fill="black"/>
<path d="M1621 1997.83L1391.06 1900.26L1380.25 2000.83L1621 1997.83Z" fill="#7482CE"/>
<path d="M1621 1997.83L1380.25 2000.83L1554.66 2096.89L1621 1997.83Z" fill="#7E7E7E"/>
<path d="M1621 458.508L1621 209.185L1542.65 399.967L1621 458.508Z" fill="#7E7E7E"/>
<path d="M1530.64 272.228L1500.63 77.0929L1366.74 170.158L1530.64 272.228Z" fill="#BFBFBF"/>
<path d="M1.60535e-05 2080.38L1.33568e-05 2142.08L99.3613 2072.88L1.60535e-05 2080.38Z" fill="black"/>
<path d="M66.3411 -260.792L0.000107957 -22.126L240.749 -79.1656L66.3411 -260.792Z" fill="black"/>
<path d="M103.864 33.4125L0.000107957 -22.126L9.87647e-05 188.17L103.864 33.4125Z" fill="#E6E6E6"/>
<path d="M1621 209.185L1500.63 77.0929L1530.64 272.228L1621 209.185Z" fill="#E6E6E6"/>
<path d="M784.834 -139.207L512.866 -212.758L503.861 -83.6687L784.834 -139.207Z" fill="#7482CE"/>
<path d="M378.984 -146.712L232.944 -345L258.76 -122.696L378.984 -146.712Z" fill="black"/>
<path d="M641.946 -345L512.866 -212.758L784.834 -139.207L641.946 -345Z" fill="black"/>
<path d="M557.894 2380.74L679.769 2355.22L559.395 2298.18L557.894 2380.74Z" fill="black"/>
<path d="M559.395 2298.18L679.769 2355.22L802.845 2206.62L559.395 2298.18Z" fill="black"/>
<path d="M270.767 2350.72L389.49 2323.7L398.496 2235.14L270.767 2350.72Z" fill="#E6E6E6"/>
<path d="M270.767 2350.72L363.824 2185.61L205.927 2230.64L270.767 2350.72Z" fill="black"/>
<path d="M1500.63 77.0929L1375.75 -61.153L1366.74 170.158L1500.63 77.0929Z" fill="#BDBDBD"/>
<path d="M1491.62 -98.6791L1375.75 -61.153L1500.63 77.0929L1491.62 -98.6791Z" fill="black"/>
<path d="M389.49 2323.7L557.894 2380.74L559.395 2298.18L389.49 2323.7Z" fill="black"/>
<path d="M1061.6 -254.787L943.032 24.4063L1162.47 -104.683L1061.6 -254.787Z" fill="#E6E6E6"/>
<path d="M1061.6 -254.787L918.717 -239.777L943.032 24.4063L1061.6 -254.787Z" fill="#BDBDBD"/>
<path d="M1554.66 2096.89L1380.25 2000.83L1335.22 2080.38L1554.66 2096.89Z" fill="black"/>
<path d="M1248.02 2409.26L1323.22 2235.14L1156.46 2227.64L1248.02 2409.26Z" fill="black"/>
<path d="M1156.46 2227.64L1323.22 2235.14L1139.95 2165.94L1156.46 2227.64Z" fill="#BFBFBF"/>
<path d="M1024.08 2392.75L1114.14 2229.14L963.745 2280.17L1024.08 2392.75Z" fill="#BFBFBF"/>
<path d="M1024.08 2392.75L963.745 2280.17L930.724 2461.8L1024.08 2392.75Z" fill="#BFBFBF"/>
<path d="M451.028 2537L568.401 2537L557.894 2380.74L451.028 2537Z" fill="black"/>
<path d="M99.3613 2419.77L270.767 2350.72L205.927 2230.64L99.3613 2419.77Z" fill="black"/>
<path d="M1323.22 2235.14L1554.66 2096.89L1335.22 2080.38L1323.22 2235.14Z" fill="#7E7E7E"/>
<path d="M1099.13 -345L1061.6 -254.787L1233.01 -345L1099.13 -345Z" fill="black"/>
<path d="M736.805 -345L641.946 -345L784.834 -139.207L736.805 -345Z" fill="black"/>
<path d="M930.724 2461.8L802.845 2206.62L679.769 2355.22L930.724 2461.8Z" fill="black"/>
<path d="M1621 209.185L1621 42.569L1500.63 77.0929L1621 209.185Z" fill="black"/>
<path d="M1233.01 -345L1061.6 -254.787L1162.47 -104.683L1233.01 -345Z" fill="black"/>
<path d="M736.805 -345L784.834 -139.207L918.717 -239.777L736.805 -345Z" fill="black"/>
<path d="M512.866 -212.758L446.526 -345L378.984 -146.712L512.866 -212.758Z" fill="#7E7E7E"/>
<path d="M258.76 -122.696L66.3411 -260.792L240.749 -79.1656L258.76 -122.696Z" fill="#E6E6E6"/>
<path d="M879.693 -345L736.805 -345L918.717 -239.777L879.693 -345Z" fill="black"/>
<path d="M1621 42.569L1621 9.39594L1500.63 77.0929L1621 42.569Z" fill="#7482CE"/>
<path d="M1621 9.39594L1491.62 -98.6791L1500.63 77.0929L1621 9.39594Z" fill="black"/>
<path d="M802.845 2537L930.724 2461.8L679.769 2355.22L802.845 2537Z" fill="#7482CE"/>
<path d="M1024.08 2392.75L1248.02 2409.26L1156.46 2227.64L1024.08 2392.75Z" fill="black"/>
<path d="M568.401 2537L679.769 2355.22L557.894 2380.74L568.401 2537Z" fill="#7E7E7E"/>
<path d="M1099.13 -345L879.693 -345L1061.6 -254.787L1099.13 -345Z" fill="#7482CE"/>
<path d="M1061.6 -254.787L879.693 -345L918.717 -239.777L1061.6 -254.787Z" fill="#BDBDBD"/>
<path d="M641.946 -345L446.526 -345L512.866 -212.758L641.946 -345Z" fill="black"/>
<path d="M446.526 -345L371.329 -345L378.984 -146.712L446.526 -345Z" fill="black"/>
<path d="M232.944 -345L66.3411 -260.792L258.76 -122.696L232.944 -345Z" fill="black"/>
<path d="M1243.52 2537L1248.02 2409.26L1024.08 2392.75L1243.52 2537Z" fill="#BFBFBF"/>
<path d="M1323.22 2235.14L1563.66 2230.64L1554.66 2096.89L1323.22 2235.14Z" fill="black"/>
<path d="M1405.77 2346.22L1563.66 2230.64L1323.22 2235.14L1405.77 2346.22Z" fill="#E6E6E6"/>
<path d="M1554.66 2096.89L1621 2245.65L1621 1997.83L1554.66 2096.89Z" fill="#BDBDBD"/>
<path d="M1404.27 -227.769L1162.47 -104.683L1375.75 -61.153L1404.27 -227.769Z" fill="black"/>
<path d="M1248.02 2409.26L1405.77 2346.22L1323.22 2235.14L1248.02 2409.26Z" fill="black"/>
<path d="M1.33568e-05 2142.08L99.3613 2419.77L205.927 2230.64L1.33568e-05 2142.08Z" fill="black"/>
<path d="M451.028 2537L557.894 2380.74L389.49 2323.7L451.028 2537Z" fill="#BDBDBD"/>
<path d="M371.329 -345L232.944 -345L378.984 -146.712L371.329 -345Z" fill="black"/>
<path d="M0.00012207 -345L0.000117865 -248.783L66.3411 -260.792L0.00012207 -345Z" fill="black"/>
<path d="M66.3411 -260.792L0.000117865 -248.783L0.000107957 -22.126L66.3411 -260.792Z" fill="#7E7E7E"/>
<path d="M451.028 2537L389.49 2323.7L338.309 2537L451.028 2537Z" fill="black"/>
<path d="M930.724 2461.8L946.034 2537L1024.08 2392.75L930.724 2461.8Z" fill="#BDBDBD"/>
<path d="M568.401 2537L802.845 2537L679.769 2355.22L568.401 2537Z" fill="black"/>
<path d="M1621 -188.742L1404.27 -227.769L1491.62 -98.6791L1621 -188.742Z" fill="black"/>
<path d="M1491.62 -98.6791L1404.27 -227.769L1375.75 -61.153L1491.62 -98.6791Z" fill="black"/>
<path d="M802.845 2537L869.186 2537L930.724 2461.8L802.845 2537Z" fill="black"/>
<path d="M338.309 2537L389.49 2323.7L270.767 2350.72L338.309 2537Z" fill="#E6E6E6"/>
<path d="M1392.26 -345L1392.56 -251.785L1400.06 -345L1392.26 -345Z" fill="#7482CE"/>
<path d="M1404.27 -227.769L1392.56 -251.785L1162.47 -104.683L1404.27 -227.769Z" fill="black"/>
<path d="M869.186 2537L946.034 2537L930.724 2461.8L869.186 2537Z" fill="#7E7E7E"/>
<path d="M1621 2430.28L1554.66 2295.18L1405.77 2346.22L1621 2430.28Z" fill="#7E7E7E"/>
<path d="M1374.25 2537L1405.77 2346.22L1248.02 2409.26L1374.25 2537Z" fill="#BDBDBD"/>
<path d="M1405.77 2346.22L1554.66 2295.18L1563.66 2230.64L1405.77 2346.22Z" fill="#BDBDBD"/>
<path d="M1563.66 2230.64L1621 2245.65L1554.66 2096.89L1563.66 2230.64Z" fill="#7E7E7E"/>
<path d="M1554.66 2295.18L1621 2245.65L1563.66 2230.64L1554.66 2295.18Z" fill="#BDBDBD"/>
<path d="M1392.56 -251.785L1233.01 -345L1162.47 -104.683L1392.56 -251.785Z" fill="#BDBDBD"/>
<path d="M213.432 2537L338.309 2537L270.767 2350.72L213.432 2537Z" fill="#E6E6E6"/>
<path d="M99.3613 2419.77L213.432 2537L270.767 2350.72L99.3613 2419.77Z" fill="#7E7E7E"/>
<path d="M232.944 -345L0.00012207 -345L66.3411 -260.792L232.944 -345Z" fill="black"/>
<path d="M1.33568e-05 2142.08L-1.01239e-06 2470.8L99.3613 2419.77L1.33568e-05 2142.08Z" fill="#BDBDBD"/>
<path d="M99.3613 2419.77L-3.90591e-06 2537L213.432 2537L99.3613 2419.77Z" fill="#7E7E7E"/>
<path d="M1621 9.39594L1621 -188.742L1491.62 -98.6791L1621 9.39594Z" fill="black"/>
<path d="M1392.56 -251.785L1392.26 -345L1233.01 -345L1392.56 -251.785Z" fill="black"/>
<path d="M1400.06 -345L1392.56 -251.785L1404.27 -227.769L1400.06 -345Z" fill="black"/>
<path d="M946.034 2537L1243.52 2537L1024.08 2392.75L946.034 2537Z" fill="black"/>
<path d="M1554.66 2295.18L1621 2430.28L1621 2245.65L1554.66 2295.18Z" fill="#7482CE"/>
<path d="M1621 -345L1400.06 -345L1404.27 -227.769L1621 -345Z" fill="black"/>
<path d="M-1.01239e-06 2470.8L-3.90591e-06 2537L99.3613 2419.77L-1.01239e-06 2470.8Z" fill="#7E7E7E"/>
<path d="M1243.52 2537L1374.25 2537L1248.02 2409.26L1243.52 2537Z" fill="black"/>
<path d="M1503.63 2537L1621 2430.28L1405.77 2346.22L1503.63 2537Z" fill="#BFBFBF"/>
<path d="M1374.25 2537L1503.63 2537L1405.77 2346.22L1374.25 2537Z" fill="#7482CE"/>
<path d="M1621 -188.742L1621 -345L1404.27 -227.769L1621 -188.742Z" fill="black"/>
<path d="M1503.63 2537L1621 2537L1621 2430.28L1503.63 2537Z" fill="black"/>
<path d="M720.294 1114.76L655.755 1002.18M720.294 1114.76L617.931 1083.24M720.294 1114.76L634.441 1259.01M720.294 1114.76L751.814 859.436M720.294 1114.76L845.171 1275.52M720.294 1114.76L965.245 978.168M720.294 1114.76L974.251 1228.84M655.755 1002.18L617.931 1083.24M655.755 1002.18L647.95 925.482M655.755 1002.18L751.814 859.436M617.931 1083.24L647.95 925.482M617.931 1083.24L634.441 1259.01M617.931 1083.24L595.417 1254.36M617.931 1083.24L475.043 1197.32M617.931 1083.24L368.477 1086.24M617.931 1083.24L383.487 872.945M751.814 859.436L647.95 925.482M751.814 859.436L965.245 978.168M751.814 859.436L833.164 788.887M751.814 859.436L816.654 778.38M751.814 859.436L727.799 710.833M647.95 925.482L383.487 872.945M647.95 925.482L463.036 748.359M647.95 925.482L727.799 710.833M634.441 1259.01L595.417 1254.36M634.441 1259.01L845.171 1275.52M634.441 1259.01L721.795 1397.11M634.441 1259.01L596.918 1458.65M634.441 1259.01L530.577 1421.13M595.417 1254.36L475.043 1197.32M595.417 1254.36L530.577 1421.13M595.417 1254.36L475.043 1403.11M368.477 1086.24L475.043 1197.32M368.477 1086.24L383.487 872.945M368.477 1086.24L312.793 1138.78M368.477 1086.24L249.754 940.642M475.043 1197.32L312.793 1138.78M475.043 1197.32L475.043 1403.11M475.043 1197.32L335.307 1397.11M845.171 1275.52L721.795 1397.11M845.171 1275.52L974.251 1228.84M845.171 1275.52L989.56 1374.59M845.171 1275.52L798.643 1391.1M965.245 978.168L974.251 1228.84M965.245 978.168L833.164 788.887M965.245 978.168L1088.62 1081.74M965.245 978.168L941.531 706.33M965.245 978.168L1090.12 947.997M974.251 1228.84L989.56 1374.59M974.251 1228.84L1030.09 1221.34M974.251 1228.84L1088.62 1081.74M383.487 872.945L463.036 748.359M383.487 872.945L375.832 766.371M383.487 872.945L249.754 940.642M383.487 872.945L204.726 793.39M833.164 788.887L816.654 778.38M833.164 788.887L941.531 706.33M463.036 748.359L727.799 710.833M463.036 748.359L375.832 766.371M463.036 748.359L553.391 643.286M463.036 748.359L246.752 601.106M463.036 748.359L506.563 530.558M816.654 778.38L727.799 710.833M816.654 778.38L741.307 638.633M816.654 778.38L941.531 706.33M596.918 1458.65L721.795 1397.11M596.918 1458.65L616.43 1563.87M596.918 1458.65L533.579 1568.38M596.918 1458.65L530.577 1421.13M721.795 1397.11L798.643 1391.1M721.795 1397.11L798.343 1494.68M721.795 1397.11L616.43 1563.87M530.577 1421.13L475.043 1403.11M530.577 1421.13L533.579 1568.38M989.56 1374.59L1030.09 1221.34M989.56 1374.59L798.343 1494.68M989.56 1374.59L798.643 1391.1M989.56 1374.59L1135.45 1334.07M989.56 1374.59L1123.14 1410.62M989.56 1374.59L1070.61 1574.38M798.643 1391.1L798.343 1494.68M727.799 710.833L741.307 638.633M727.799 710.833L553.391 643.286M741.307 638.633L941.531 706.33M741.307 638.633L553.391 643.286M741.307 638.633L560.896 593.601M741.307 638.633L950.236 608.612M741.307 638.633L772.827 472.017M249.754 940.642L312.793 1138.78M249.754 940.642L204.726 793.39M249.754 940.642L169.905 1110.26M249.754 940.642L141.387 984.172M249.754 940.642L93.3577 844.425M312.793 1138.78L335.307 1397.11M312.793 1138.78L252.756 1389.6M312.793 1138.78L169.905 1110.26M475.043 1403.11L335.307 1397.11M475.043 1403.11L533.579 1568.38M1030.09 1221.34L1088.62 1081.74M1030.09 1221.34L1112.94 1092.25M1030.09 1221.34L1135.45 1334.07M1088.62 1081.74L1090.12 947.997M1088.62 1081.74L1112.94 1092.25M798.343 1494.68L616.43 1563.87M798.343 1494.68L1070.61 1574.38M798.343 1494.68L738.305 1638.93M798.343 1494.68L891.7 1685.46M335.307 1397.11L252.756 1389.6M335.307 1397.11L533.579 1568.38M335.307 1397.11L232.944 1619.41M335.307 1397.11L172.907 1493.18M616.43 1563.87L533.579 1568.38M616.43 1563.87L738.305 1638.93M616.43 1563.87L563.898 1781.53M533.579 1568.38L232.944 1619.41M533.579 1568.38L563.898 1781.53M533.579 1568.38L374.331 1795.03M941.531 706.33L1090.12 947.997M941.531 706.33L950.236 608.612M941.531 706.33L1257.03 616.117M941.531 706.33L1246.52 832.417M941.531 706.33L1254.02 764.87M375.832 766.371L246.752 601.106M375.832 766.371L204.726 793.39M1090.12 947.997L1112.94 1092.25M1090.12 947.997L1266.03 1084.74M1090.12 947.997L1246.52 832.417M1090.12 947.997L1284.19 952.65M553.391 643.286L560.896 593.601M553.391 643.286L506.563 530.558M246.752 601.106L204.726 793.39M246.752 601.106L129.38 784.384M246.752 601.106L506.563 530.558M246.752 601.106L205.927 479.522M246.752 601.106L339.81 362.441M246.752 601.106L0.000118988 554.574M1112.94 1092.25L1135.45 1334.07M1112.94 1092.25L1266.03 1084.74M1112.94 1092.25L1297.7 1161.3M1135.45 1334.07L1123.14 1410.62M1135.45 1334.07L1297.7 1161.3M1135.45 1334.07L1402.77 1301.04M1135.45 1334.07L1261.53 1461.65M204.726 793.39L129.38 784.384M204.726 793.39L93.3577 844.425M252.756 1389.6L169.905 1110.26M252.756 1389.6L72.3446 1325.06M252.756 1389.6L172.907 1493.18M560.896 593.601L506.563 530.558M560.896 593.601L680.97 416.478M560.896 593.601L772.827 472.017M506.563 530.558L680.97 416.478M506.563 530.558L499.058 341.276M506.563 530.558L339.81 362.441M169.905 1110.26L141.387 984.172M169.905 1110.26L72.3446 1325.06M169.905 1110.26L8.93839e-05 1231.84M169.905 1110.26L0.0001008 970.663M1257.03 616.117L950.236 608.612M1257.03 616.117L1106.63 479.522M1257.03 616.117L1254.02 764.87M1257.03 616.117L1390.76 631.127M1257.03 616.117L1196.99 434.491M1257.03 616.117L1311.21 416.478M950.236 608.612L772.827 472.017M950.236 608.612L875.19 414.977M950.236 608.612L976.052 405.971M950.236 608.612L1106.63 479.522M680.97 416.478L772.827 472.017M680.97 416.478L787.836 260.22M680.97 416.478L499.058 341.276M680.97 416.478L650.952 261.721M1123.14 1410.62L1070.61 1574.38M1123.14 1410.62L1261.53 1461.65M232.944 1619.41L216.734 1608.91M232.944 1619.41L172.907 1493.18M232.944 1619.41L374.331 1795.03M232.944 1619.41L186.415 1775.52M93.3577 844.425L141.387 984.172M93.3577 844.425L129.38 784.384M93.3577 844.425L0.0001008 970.663M93.3577 844.425L0.00010645 841.423M93.3577 844.425L0.000110255 754.363M141.387 984.172L0.0001008 970.663M772.827 472.017L875.19 414.977M772.827 472.017L787.836 260.22M1070.61 1574.38L891.7 1685.46M1070.61 1574.38L1233.01 1610.41M1070.61 1574.38L1042.09 1846.07M1070.61 1574.38L1261.53 1461.65M563.898 1781.53L738.305 1638.93M563.898 1781.53L374.331 1795.03M563.898 1781.53L651.252 1799.54M563.898 1781.53L587.913 1865.73M563.898 1781.53L491.553 1834.06M563.898 1781.53L500.559 1856.73M738.305 1638.93L891.7 1685.46M738.305 1638.93L837.667 1748.5M738.305 1638.93L651.252 1799.54M1297.7 1161.3L1266.03 1084.74M1297.7 1161.3L1402.77 1301.04M1297.7 1161.3L1389.56 1005.19M1297.7 1161.3L1457.1 1111.76M1266.03 1084.74L1284.19 952.65M1266.03 1084.74L1389.56 1005.19M1246.52 832.417L1284.19 952.65M1246.52 832.417L1296.2 910.471M1246.52 832.417L1254.02 764.87M1246.52 832.417L1410.27 802.396M1284.19 952.65L1389.56 1005.19M1284.19 952.65L1296.2 910.471M875.19 414.977L976.052 405.971M875.19 414.977L787.836 260.22M875.19 414.977L866.184 279.734M129.38 784.384L0.000110255 754.363M129.38 784.384L0.000118988 554.574M1402.77 1301.04L1261.53 1461.65M1402.77 1301.04L1425.58 1344.57M1402.77 1301.04L1457.1 1111.76M1402.77 1301.04L1621 1129.77M1389.56 1005.19L1296.2 910.471M1389.56 1005.19L1457.1 1111.76M1389.56 1005.19L1410.27 802.396M1389.56 1005.19L1503.63 785.885M1389.56 1005.19L1621 943.644M8.93839e-05 1231.84L72.3446 1325.06M8.93839e-05 1231.84L0.0001008 970.663M8.93839e-05 1231.84L8.17663e-05 1406.12M72.3446 1325.06L172.907 1493.18M72.3446 1325.06L8.17663e-05 1406.12M1296.2 910.471L1410.27 802.396M891.7 1685.46L837.667 1748.5M891.7 1685.46L1042.09 1846.07M891.7 1685.46L956.54 1855.23M1261.53 1461.65L1288.69 1532.2M1261.53 1461.65L1233.01 1610.41M1261.53 1461.65L1425.58 1344.57M1261.53 1461.65L1428.58 1496.18M339.81 362.441L205.927 479.522M339.81 362.441L499.058 341.276M339.81 362.441L496.056 336.923M339.81 362.441L228.741 300.748M339.81 362.441L360.823 101.11M205.927 479.522L0.000118988 554.574M205.927 479.522L126.378 411.975M205.927 479.522L228.741 300.748M1410.27 802.396L1254.02 764.87M1410.27 802.396L1503.63 785.885M1410.27 802.396L1425.58 671.806M1254.02 764.87L1390.76 631.127M1254.02 764.87L1425.58 671.806M172.907 1493.18L216.734 1608.91M172.907 1493.18L7.38862e-05 1586.39M172.907 1493.18L8.17663e-05 1406.12M172.907 1493.18L7.64516e-05 1527.7M0.0001008 970.663L0.00010645 841.423M651.252 1799.54L837.667 1748.5M651.252 1799.54L587.913 1865.73M651.252 1799.54L777.33 1966.3M837.667 1748.5L918.717 1864.23M837.667 1748.5L777.33 1966.3M837.667 1748.5L956.54 1855.23M976.052 405.971L1106.63 479.522M976.052 405.971L866.184 279.734M976.052 405.971L1025.58 191.172M976.052 405.971L1100.63 212.187M787.836 260.22L650.952 261.721M787.836 260.22L866.184 279.734M787.836 260.22L673.466 194.174M787.836 260.22L854.177 72.5898M0.00010645 841.423L0.000110255 754.363M0.000110255 754.363L0.000118988 554.574M7.38862e-05 1586.39L216.734 1608.91M7.38862e-05 1586.39L7.64516e-05 1527.7M7.38862e-05 1586.39L186.415 1775.52M7.38862e-05 1586.39L6.45692e-05 1799.54M216.734 1608.91L186.415 1775.52M1042.09 1846.07L1233.01 1610.41M1042.09 1846.07L1064.61 2158.44M1042.09 1846.07L956.54 1855.23M1042.09 1846.07L1180.48 1865.73M1233.01 1610.41L1288.69 1532.2M1233.01 1610.41L1357.74 1634.42M1233.01 1610.41L1270.53 1856.58M1233.01 1610.41L1180.48 1865.73M1288.69 1532.2L1428.58 1496.18M1288.69 1532.2L1357.74 1634.42M1457.1 1111.76L1621 1129.77M1457.1 1111.76L1621 943.644M8.17663e-05 1406.12L7.64516e-05 1527.7M1106.63 479.522L1196.99 434.491M1106.63 479.522L1100.63 212.187M496.056 336.923L499.058 341.276M496.056 336.923L650.952 261.721M496.056 336.923L419.509 89.1012M496.056 336.923L360.823 101.11M499.058 341.276L650.952 261.721M650.952 261.721L673.466 194.174M650.952 261.721L419.509 89.1012M374.331 1795.03L186.415 1775.52M374.331 1795.03L491.553 1834.06M374.331 1795.03L500.559 1856.73M374.331 1795.03L219.736 1886.75M1390.76 631.127L1425.58 671.806M1390.76 631.127L1311.21 416.478M1390.76 631.127L1542.65 399.967M1390.76 631.127L1533.65 616.117M0.000118988 554.574L126.378 411.975M0.000118988 554.574L0.000124172 435.992M1425.58 1344.57L1428.58 1496.18M1425.58 1344.57L1621 1129.77M1425.58 1344.57L1621 1385.1M1425.58 1344.57L1621 1421.13M1503.63 785.885L1425.58 671.806M1503.63 785.885L1621 943.644M1503.63 785.885L1533.65 616.117M1503.63 785.885L1621 892.459M1503.63 785.885L1621 773.876M186.415 1775.52L219.736 1886.75M186.415 1775.52L175.909 1889.75M186.415 1775.52L6.45692e-05 1799.54M587.913 1865.73L500.559 1856.73M587.913 1865.73L777.33 1966.3M587.913 1865.73L544.386 1990.32M491.553 1834.06L500.559 1856.73M1428.58 1496.18L1357.74 1634.42M1428.58 1496.18L1621 1421.13M1428.58 1496.18L1621 1709.48M1428.58 1496.18L1499.12 1707.97M1621 1129.77L1621 1385.1M1621 1129.77L1621 943.644M360.823 101.11L228.741 300.748M360.823 101.11L180.411 234.702M360.823 101.11L419.509 89.1012M360.823 101.11L404.5 43.9198M360.823 101.11L153.395 75.5918M360.823 101.11L240.749 -79.1656M228.741 300.748L126.378 411.975M228.741 300.748L180.411 234.702M1025.58 191.172L866.184 279.734M1025.58 191.172L1100.63 212.187M1025.58 191.172L854.177 72.5898M1025.58 191.172L943.032 24.4063M1025.58 191.172L1106.93 7.89488M866.184 279.734L854.177 72.5898M500.559 1856.73L544.386 1990.32M500.559 1856.73L339.81 2141.93M500.559 1856.73L219.736 1886.75M777.33 1966.3L918.717 1864.23M777.33 1966.3L544.386 1990.32M777.33 1966.3L780.331 1996.32M777.33 1966.3L842.169 2063.87M918.717 1864.23L956.54 1855.23M918.717 1864.23L842.169 2063.87M956.54 1855.23L1064.61 2158.44M956.54 1855.23L842.169 2063.87M1196.99 434.491L1311.21 416.478M1196.99 434.491L1100.63 212.187M1196.99 434.491L1246.52 297.746M1100.63 212.187L1246.52 297.746M1100.63 212.187L1222.5 194.174M1100.63 212.187L1106.93 7.89488M1311.21 416.478L1542.65 399.967M1311.21 416.478L1246.52 297.746M1311.21 416.478L1366.74 170.158M1311.21 416.478L1530.64 272.228M1425.58 671.806L1533.65 616.117M126.378 411.975L0.000124172 435.992M126.378 411.975L0.000133495 222.694M126.378 411.975L180.411 234.702M1064.61 2158.44L1180.48 1865.73M1064.61 2158.44L842.169 2063.87M1064.61 2158.44L963.744 2280.17M1064.61 2158.44L1139.95 2165.94M1064.61 2158.44L1114.14 2229.14M1357.74 1634.42L1270.53 1856.58M1357.74 1634.42L1499.12 1707.97M1357.74 1634.42L1393.76 1813.05M339.81 2141.93L544.386 1990.32M339.81 2141.93L393.993 2155.44M339.81 2141.93L219.736 1886.75M339.81 2141.93L99.3614 2072.88M339.81 2141.93L363.824 2185.61M339.81 2141.93L205.927 2230.64M544.386 1990.32L780.331 1996.32M544.386 1990.32L393.993 2155.44M544.386 1990.32L802.845 2206.62M544.386 1990.32L559.395 2298.18M1621 943.644L1621 892.459M673.466 194.174L673.766 87.6002M673.466 194.174L854.177 72.5898M673.466 194.174L419.509 89.1012M419.509 89.1012L404.5 43.9198M419.509 89.1012L503.861 -83.6687M419.509 89.1012L673.766 87.6002M673.766 87.6002L854.177 72.5898M673.766 87.6002L503.861 -83.6687M673.766 87.6002L860.181 -5.61451M673.766 87.6002L784.834 -139.207M673.766 87.6002L822.357 -92.6749M854.177 72.5898L943.032 24.4063M854.177 72.5898L860.181 -5.61451M180.411 234.702L0.000133495 222.694M180.411 234.702L0.000135004 188.17M180.411 234.702L153.395 75.5918M1270.53 1856.58L1391.06 1900.26M1270.53 1856.58L1380.25 2000.83M1270.53 1856.58L1180.48 1865.73M1270.53 1856.58L1393.76 1813.05M1270.53 1856.58L1335.22 2080.38M1542.65 399.967L1533.65 616.117M1542.65 399.967L1621 458.508M1542.65 399.967L1530.64 272.228M1542.65 399.967L1621 209.185M1533.65 616.117L1621 773.876M1533.65 616.117L1621 565.082M1533.65 616.117L1621 458.508M842.169 2063.87L802.845 2206.62M842.169 2063.87L780.331 1996.32M842.169 2063.87L963.744 2280.17M0.000124172 435.992L0.000133495 222.694M0.000133495 222.694L0.000135004 188.17M219.736 1886.75L175.909 1889.75M219.736 1886.75L99.3614 2072.88M780.331 1996.32L802.845 2206.62M1621 1385.1L1621 1421.13M1621 1421.13L1621 1709.48M175.909 1889.75L6.45692e-05 1799.54M175.909 1889.75L99.3614 2072.88M175.909 1889.75L5.65579e-05 1982.82M1180.48 1865.73L1335.22 2080.38M1180.48 1865.73L1139.95 2165.94M1246.52 297.746L1222.5 194.174M1246.52 297.746L1366.74 170.158M1222.5 194.174L1366.74 170.158M1222.5 194.174L1106.93 7.89488M1222.5 194.174L1242.17 36.5648M1366.74 170.158L1530.64 272.228M1366.74 170.158L1242.17 36.5648M1366.74 170.158L1375.75 -61.153M1366.74 170.158L1500.63 77.0929M1621 892.459L1621 773.876M1621 773.876L1621 565.082M6.45692e-05 1799.54L5.65579e-05 1982.82M393.993 2155.44L363.824 2185.61M393.993 2155.44L559.395 2298.18M393.993 2155.44L398.496 2235.14M1391.06 1900.26L1380.25 2000.83M1391.06 1900.26L1393.76 1813.05M1391.06 1900.26L1621 1912.27M1391.06 1900.26L1621 1997.83M1380.25 2000.83L1335.22 2080.38M1380.25 2000.83L1621 1997.83M1380.25 2000.83L1554.66 2096.89M1621 1709.48L1499.12 1707.97M1621 1709.48L1621 1715.48M1621 1709.48L1544.15 1728.99M943.032 24.4063L1106.93 7.89488M943.032 24.4063L860.181 -5.61451M943.032 24.4063L822.357 -92.6749M943.032 24.4063L918.717 -239.777M943.032 24.4063L1162.47 -104.683M943.032 24.4063L1061.6 -254.787M1499.12 1707.97L1393.76 1813.05M1499.12 1707.97L1544.15 1728.99M404.5 43.9198L503.861 -83.6687M404.5 43.9198L240.749 -79.1656M404.5 43.9198L378.984 -146.712M503.861 -83.6687L784.834 -139.207M503.861 -83.6687L378.984 -146.712M503.861 -83.6687L512.867 -212.758M802.845 2206.62L559.395 2298.18M802.845 2206.62L963.744 2280.17M802.845 2206.62L930.724 2461.8M802.845 2206.62L679.769 2355.22M1106.93 7.89488L1242.17 36.5648M1106.93 7.89488L1162.47 -104.683M1393.76 1813.05L1544.15 1728.99M1393.76 1813.05L1621 1912.27M0.000135004 188.17L153.395 75.5918M0.000135004 188.17L103.864 33.4125M0.000135004 188.17L0.000144197 -22.126M1621 565.082L1621 458.508M860.181 -5.61451L822.357 -92.6749M153.395 75.5918L240.749 -79.1656M153.395 75.5918L103.864 33.4125M1621 458.508L1621 209.185M1544.15 1728.99L1621 1912.27M1544.15 1728.99L1621 1715.48M1335.22 2080.38L1139.95 2165.94M1335.22 2080.38L1323.22 2235.14M1335.22 2080.38L1554.66 2096.89M1621 1912.27L1621 1715.48M1621 1912.27L1621 1997.83M240.749 -79.1656L103.864 33.4125M240.749 -79.1656L378.984 -146.712M240.749 -79.1656L258.76 -122.696M240.749 -79.1656L0.000144197 -22.126M240.749 -79.1656L66.341 -260.792M1530.64 272.228L1621 209.185M1530.64 272.228L1500.63 77.0929M822.357 -92.6749L918.717 -239.777M822.357 -92.6749L784.834 -139.207M99.3614 2072.88L5.65579e-05 1982.82M99.3614 2072.88L5.22931e-05 2080.38M99.3614 2072.88L205.927 2230.64M99.3614 2072.88L4.95964e-05 2142.08M1242.17 36.5648L1375.75 -61.153M1242.17 36.5648L1162.47 -104.683M5.65579e-05 1982.82L5.22931e-05 2080.38M559.395 2298.18L389.49 2323.7M559.395 2298.18L398.496 2235.14M559.395 2298.18L679.769 2355.22M559.395 2298.18L557.894 2380.74M784.834 -139.207L918.717 -239.777M784.834 -139.207L512.867 -212.758M784.834 -139.207L641.946 -345M784.834 -139.207L736.805 -345M103.864 33.4125L0.000144197 -22.126M963.744 2280.17L1114.14 2229.14M963.744 2280.17L930.724 2461.8M963.744 2280.17L1024.08 2392.75M1621 209.185L1500.63 77.0929M1621 209.185L1621 42.569M918.717 -239.777L1061.6 -254.787M918.717 -239.777L736.805 -345M918.717 -239.777L879.693 -345M363.824 2185.61L205.927 2230.64M363.824 2185.61L398.496 2235.14M363.824 2185.61L270.767 2350.72M205.927 2230.64L4.95964e-05 2142.08M205.927 2230.64L270.767 2350.72M205.927 2230.64L99.3613 2419.77M1375.75 -61.153L1162.47 -104.683M1375.75 -61.153L1500.63 77.0929M1375.75 -61.153L1491.62 -98.6791M1375.75 -61.153L1404.27 -227.769M1114.14 2229.14L1139.95 2165.94M1114.14 2229.14L1156.46 2227.64M1114.14 2229.14L1024.08 2392.75M1139.95 2165.94L1323.22 2235.14M1139.95 2165.94L1156.46 2227.64M270.767 2350.72L398.496 2235.14M270.767 2350.72L389.49 2323.7M270.767 2350.72L99.3613 2419.77M270.767 2350.72L338.309 2537M270.767 2350.72L213.432 2537M398.496 2235.14L389.49 2323.7M1162.47 -104.683L1061.6 -254.787M1162.47 -104.683L1233.01 -345M1162.47 -104.683L1404.27 -227.769M1162.47 -104.683L1392.56 -251.785M1621 1997.83L1554.66 2096.89M1621 1997.83L1621 2245.65M378.984 -146.712L512.867 -212.758M378.984 -146.712L258.76 -122.696M378.984 -146.712L232.944 -345M378.984 -146.712L446.526 -345M378.984 -146.712L371.329 -345M5.22931e-05 2080.38L4.95964e-05 2142.08M389.49 2323.7L557.894 2380.74M389.49 2323.7L451.028 2537M389.49 2323.7L338.309 2537M1323.22 2235.14L1248.02 2409.26M1323.22 2235.14L1156.46 2227.64M1323.22 2235.14L1554.66 2096.89M1323.22 2235.14L1563.66 2230.64M1323.22 2235.14L1405.77 2346.22M512.867 -212.758L641.946 -345M512.867 -212.758L446.526 -345M930.724 2461.8L1024.08 2392.75M930.724 2461.8L679.769 2355.22M930.724 2461.8L802.845 2537M930.724 2461.8L946.034 2537M930.724 2461.8L869.186 2537M1024.08 2392.75L1156.46 2227.64M1024.08 2392.75L1248.02 2409.26M1024.08 2392.75L1243.52 2537M1024.08 2392.75L946.034 2537M1156.46 2227.64L1248.02 2409.26M258.76 -122.696L232.944 -345M258.76 -122.696L66.341 -260.792M0.000144197 -22.126L66.341 -260.792M0.000144197 -22.126L0.000154104 -248.783M4.95964e-05 2142.08L99.3613 2419.77M4.95964e-05 2142.08L3.52272e-05 2470.8M1554.66 2096.89L1563.66 2230.64M1554.66 2096.89L1621 2245.65M1500.63 77.0929L1491.62 -98.6791M1500.63 77.0929L1621 42.569M1500.63 77.0929L1621 9.39594M66.341 -260.792L232.944 -345M66.341 -260.792L0.000154104 -248.783M66.341 -260.792L0.00015831 -345M232.944 -345L371.329 -345M232.944 -345L0.00015831 -345M641.946 -345L736.805 -345M641.946 -345L446.526 -345M557.894 2380.74L679.769 2355.22M557.894 2380.74L568.401 2537M557.894 2380.74L451.028 2537M679.769 2355.22L802.845 2537M679.769 2355.22L568.401 2537M1491.62 -98.6791L1621 9.39594M1491.62 -98.6791L1404.27 -227.769M1491.62 -98.6791L1621 -188.742M1061.6 -254.787L1099.13 -345M1061.6 -254.787L1233.01 -345M1061.6 -254.787L879.693 -345M1248.02 2409.26L1243.52 2537M1248.02 2409.26L1405.77 2346.22M1248.02 2409.26L1374.25 2537M451.028 2537L568.401 2537M451.028 2537L338.309 2537M568.401 2537L802.845 2537M99.3613 2419.77L213.432 2537M99.3613 2419.77L3.52272e-05 2470.8M99.3613 2419.77L3.23337e-05 2537M1099.13 -345L1233.01 -345M1099.13 -345L879.693 -345M1233.01 -345L1392.56 -251.785M1233.01 -345L1392.26 -345M736.805 -345L879.693 -345M1621 42.569L1621 9.39594M446.526 -345L371.329 -345M1621 9.39594L1621 -188.742M802.845 2537L869.186 2537M1243.52 2537L946.034 2537M1243.52 2537L1374.25 2537M1563.66 2230.64L1405.77 2346.22M1563.66 2230.64L1554.66 2295.18M1563.66 2230.64L1621 2245.65M1405.77 2346.22L1554.66 2295.18M1405.77 2346.22L1621 2430.28M1405.77 2346.22L1374.25 2537M1405.77 2346.22L1503.63 2537M1621 2245.65L1554.66 2295.18M1621 2245.65L1621 2430.28M1404.27 -227.769L1621 -188.742M1404.27 -227.769L1392.56 -251.785M1404.27 -227.769L1400.06 -345M1404.27 -227.769L1621 -345M0.00015831 -345L0.000154104 -248.783M338.309 2537L213.432 2537M946.034 2537L869.186 2537M1621 -188.742L1621 -345M1392.26 -345L1392.56 -251.785M1392.26 -345L1400.06 -345M1392.56 -251.785L1400.06 -345M1400.06 -345L1621 -345M1621 2430.28L1554.66 2295.18M1621 2430.28L1503.63 2537M1621 2430.28L1621 2537L1503.63 2537M1374.25 2537L1503.63 2537M213.432 2537L3.23337e-05 2537M3.52272e-05 2470.8L3.23337e-05 2537" stroke="black" stroke-width="4" stroke-linejoin="bevel"/>
</g>
</svg>
